<?xml version="1.0" encoding="utf-8"?>
<!-- Generator: Adobe Illustrator 16.0.0, SVG Export Plug-In . SVG Version: 6.00 Build 0)  -->
<!DOCTYPE svg PUBLIC "-//W3C//DTD SVG 1.1//EN" "http://www.w3.org/Graphics/SVG/1.1/DTD/svg11.dtd">
<svg version="1.1" id="Calque_1" xmlns="http://www.w3.org/2000/svg" xmlns:xlink="http://www.w3.org/1999/xlink" x="0px" y="0px"
	 width="582.778px" height="322.81px" viewBox="0 0 582.778 322.81" enable-background="new 0 0 582.778 322.81"
	 xml:space="preserve">
<rect x="32.174" y="95.693" fill="none" stroke="#FF0000" stroke-width="0.0354" width="157.771" height="16.533"/>
<circle fill="none" stroke="#FF0000" stroke-width="0.0354" cx="32.174" cy="159.732" r="0"/>
<circle fill="none" stroke="#FF0000" stroke-width="0.0354" cx="79.143" cy="186.134" r="9.921"/>
<circle fill="none" stroke="#FF0000" stroke-width="0.0354" cx="79.144" cy="235.216" r="9.921"/>
<g>
	<g transform="scale(0.0138410546875)">
		<g transform="translate(-3077.5,819)">
			<path d="M12582.475,12791.684h-173.639v268.816h-127.141v-268.816h-568.822v-115.992l555.203-791.215h140.76v786.418h173.639
				V12791.684z M12281.695,12670.895v-388.836c0-76.27,2.609-162.418,7.973-258.375h-6.422
				c-25.611,51.152-49.6,93.559-71.967,127.215l-365.619,519.996H12281.695z"/>
			<path d="M13290.43,12447.652h397.654v568.824c-61.879,19.754-124.814,34.641-188.809,44.801s-138.148,15.172-222.393,15.172
				c-177.094,0-314.961-52.637-413.598-157.977c-98.707-105.34-148.025-252.941-148.025-442.809
				c0-121.566,24.412-228.105,73.236-319.617c48.754-91.441,119.027-161.289,210.75-209.551
				c91.723-48.258,199.25-72.461,322.441-72.461c124.742,0,241.018,23,348.756,68.863l-52.775,119.945
				c-105.621-44.805-207.223-67.168-304.801-67.168c-142.381,0-253.578,42.402-333.588,127.211s-120.016,202.352-120.016,352.777
				c0,157.906,38.523,277.637,115.57,359.199c77.117,81.633,190.289,122.414,339.656,122.414c81.068,0,160.232-9.312,237.561-28.008
				v-359.977h-261.621V12447.652z"/>
			<path d="M13808.1,13060.5"/>
			<path d="M15239.252,13060.5h-159.949l-426.441-567.195l-122.414,108.797v458.398h-135.961v-1169.602h135.961v579.969
				l530.438-579.969h160.797l-470.395,508L15239.252,13060.5z"/>
			<path d="M15400.049,13060.5v-1169.602h136.031V13060.5H15400.049z"/>
			<path d="M16216.873,13060.5h-136.031v-1048.809h-370.348v-120.793h876.797v120.793h-370.418V13060.5z"/>
		</g>
	</g>
	<circle fill="none" stroke="#FF0000" stroke-width="0.0354" cx="115.874" cy="218.756" r="0"/>
	<circle fill="none" stroke="#FF0000" stroke-width="0.0354" cx="115.874" cy="218.756" r="0"/>
	<g>
		<path d="M141.603,200.51c0.608-0.128,1.569-0.224,2.545-0.224c1.393,0,2.289,0.24,2.961,0.784c0.56,0.416,0.896,1.057,0.896,1.904
			c0,1.041-0.688,1.953-1.825,2.369v0.032c1.024,0.256,2.225,1.104,2.225,2.705c0,0.929-0.368,1.633-0.912,2.161
			c-0.752,0.688-1.969,1.008-3.729,1.008c-0.96,0-1.697-0.063-2.161-0.128V200.51z M142.996,204.927h1.265
			c1.473,0,2.337-0.769,2.337-1.809c0-1.265-0.96-1.761-2.369-1.761c-0.641,0-1.009,0.048-1.233,0.096V204.927z M142.996,210.097
			c0.272,0.048,0.672,0.064,1.168,0.064c1.441,0,2.77-0.528,2.77-2.097c0-1.473-1.265-2.081-2.785-2.081h-1.153V210.097z"/>
		<path d="M150.803,203.407l1.697,4.578c0.176,0.512,0.368,1.12,0.496,1.584h0.032c0.144-0.464,0.304-1.056,0.496-1.616l1.537-4.546
			h1.489l-2.113,5.522c-1.008,2.657-1.696,4.018-2.657,4.85c-0.688,0.608-1.376,0.849-1.729,0.912l-0.352-1.185
			c0.352-0.111,0.816-0.336,1.232-0.688c0.384-0.305,0.864-0.849,1.185-1.569c0.064-0.144,0.112-0.256,0.112-0.336
			s-0.032-0.192-0.096-0.368l-2.865-7.139H150.803z"/>
		<path d="M134.095,224.848c0,3.713-2.257,5.682-5.01,5.682c-2.849,0-4.85-2.209-4.85-5.474c0-3.426,2.129-5.667,5.01-5.667
			C132.19,219.389,134.095,221.646,134.095,224.848z M125.724,225.024c0,2.305,1.249,4.37,3.441,4.37
			c2.209,0,3.457-2.033,3.457-4.482c0-2.145-1.12-4.386-3.441-4.386C126.876,220.526,125.724,222.655,125.724,225.024z"/>
		<path d="M135.851,225.024c0-0.912-0.016-1.696-0.064-2.417h1.232l0.048,1.521h0.064c0.352-1.04,1.2-1.696,2.145-1.696
			c0.16,0,0.272,0.016,0.4,0.048v1.328c-0.144-0.032-0.288-0.048-0.48-0.048c-0.992,0-1.696,0.752-1.889,1.809
			c-0.032,0.192-0.064,0.416-0.064,0.656v4.13h-1.393V225.024z"/>
		<path d="M145.293,230.354l-0.112-0.977h-0.048c-0.432,0.608-1.265,1.152-2.369,1.152c-1.569,0-2.369-1.104-2.369-2.225
			c0-1.873,1.665-2.897,4.658-2.881v-0.16c0-0.641-0.176-1.793-1.761-1.793c-0.72,0-1.473,0.224-2.017,0.576l-0.32-0.929
			c0.64-0.416,1.568-0.688,2.545-0.688c2.369,0,2.945,1.616,2.945,3.169v2.897c0,0.672,0.032,1.328,0.128,1.856H145.293z
			 M145.085,226.401c-1.537-0.032-3.281,0.239-3.281,1.744c0,0.912,0.608,1.345,1.329,1.345c1.008,0,1.648-0.641,1.873-1.297
			c0.048-0.144,0.08-0.304,0.08-0.448V226.401z"/>
		<path d="M148.716,224.704c0-0.8-0.016-1.456-0.064-2.097h1.249l0.08,1.28h0.032c0.384-0.736,1.281-1.456,2.561-1.456
			c1.073,0,2.737,0.64,2.737,3.297v4.626h-1.409v-4.466c0-1.248-0.464-2.289-1.792-2.289c-0.929,0-1.649,0.656-1.889,1.44
			c-0.064,0.177-0.096,0.416-0.096,0.656v4.658h-1.409V224.704z"/>
		<path d="M164.27,222.607c-0.032,0.561-0.064,1.185-0.064,2.129v4.498c0,1.776-0.353,2.865-1.104,3.537
			c-0.752,0.704-1.841,0.929-2.817,0.929c-0.928,0-1.953-0.225-2.577-0.641l0.353-1.072c0.512,0.32,1.312,0.608,2.273,0.608
			c1.44,0,2.497-0.753,2.497-2.705v-0.864h-0.032c-0.432,0.72-1.265,1.296-2.465,1.296c-1.921,0-3.297-1.633-3.297-3.777
			c0-2.625,1.712-4.113,3.489-4.113c1.345,0,2.081,0.704,2.417,1.344h0.032l0.064-1.168H164.27z M162.814,225.665
			c0-0.24-0.016-0.448-0.08-0.641c-0.256-0.816-0.944-1.488-1.969-1.488c-1.345,0-2.305,1.136-2.305,2.929
			c0,1.521,0.769,2.785,2.289,2.785c0.864,0,1.648-0.544,1.953-1.44c0.08-0.24,0.112-0.513,0.112-0.752V225.665z"/>
		<path d="M167.323,226.737c0.032,1.904,1.249,2.688,2.657,2.688c1.008,0,1.617-0.176,2.145-0.399l0.24,1.008
			c-0.496,0.225-1.344,0.48-2.577,0.48c-2.385,0-3.81-1.568-3.81-3.905s1.376-4.178,3.633-4.178c2.529,0,3.201,2.225,3.201,3.649
			c0,0.288-0.032,0.512-0.048,0.656H167.323z M171.453,225.728c0.016-0.896-0.368-2.289-1.953-2.289
			c-1.425,0-2.049,1.312-2.161,2.289H171.453z"/>
	</g>
</g>
<rect x="226.945" y="94.693" fill="none" stroke="#FF0000" stroke-width="0.0354" width="157.5" height="16.533"/>
<polyline fill="none" stroke="#FF0000" stroke-width="0.0354" points="548.402,261.476 508.355,261.476 508.355,237.184 
	548.402,237.184 "/>
<rect x="412.445" y="94.693" fill="none" stroke="#FF0000" stroke-width="0.0354" width="95.91" height="25.783"/>
<circle fill="none" stroke="#FF0000" stroke-width="0.0354" cx="105.874" cy="220.618" r="0"/>
<circle fill="none" stroke="#FF0000" stroke-width="0.0354" cx="105.874" cy="220.618" r="0"/>
<circle fill="none" stroke="#FF0000" stroke-width="0.0354" cx="32.174" cy="169.594" r="0"/>
<polygon fill="none" stroke="#FF0000" stroke-width="0.0354" points="15.488,8.972 46.67,8.972 46.67,17.476 77.85,17.476 
	77.85,8.972 100.528,8.972 100.528,17.476 123.205,17.476 123.205,8.972 145.882,8.972 145.882,17.476 177.063,17.476 
	177.063,8.972 208.244,8.972 208.244,39.445 199.74,39.445 199.74,69.917 208.244,69.917 208.244,92.594 199.74,92.594 
	199.74,123.067 208.244,123.067 208.244,153.539 177.063,153.539 177.063,145.035 145.882,145.035 145.882,153.539 123.205,153.539 
	123.205,145.035 100.528,145.035 100.528,153.539 77.85,153.539 77.85,145.035 46.67,145.035 46.67,153.539 15.488,153.539 
	15.488,123.067 23.992,123.067 23.992,92.594 15.488,92.594 15.488,69.917 23.992,69.917 23.992,39.445 15.488,39.445 "/>
<g transform="translate(263.4450985, 22.5000185) ">
	<polygon fill="none" stroke="#FF0000" stroke-width="0.0354" points="-55.201,-13.528 -24.02,-13.528 -24.02,-5.024 7.161,-5.024 
		7.161,-13.528 29.839,-13.528 29.839,-5.024 52.516,-5.024 52.516,-13.528 75.192,-13.528 75.192,-5.024 106.374,-5.024 
		106.374,-13.528 137.556,-13.528 137.556,16.945 129.051,16.945 129.051,47.417 137.556,47.417 137.556,70.094 129.051,70.094 
		129.051,100.567 137.556,100.567 137.556,131.039 106.374,131.039 106.374,122.535 75.192,122.535 75.192,131.039 52.516,131.039 
		52.516,122.535 29.839,122.535 29.839,131.039 7.161,131.039 7.161,122.535 -24.02,122.535 -24.02,131.039 -55.201,131.039 
		-55.201,100.567 -46.697,100.567 -46.697,70.094 -55.201,70.094 -55.201,47.417 -46.697,47.417 -46.697,16.945 -55.201,16.945 	"/>
</g>
<g transform="translate(504.3901785, 22.5000185) ">
	<polygon fill="none" stroke="#FF0000" stroke-width="0.0354" points="-94.886,-13.528 -72.209,-13.528 -72.209,-5.024 
		-41.028,-5.024 -41.028,-13.528 -18.35,-13.528 -18.35,-5.024 12.83,-5.024 12.83,-13.528 35.508,-13.528 35.508,16.945 
		44.012,16.945 44.012,47.417 35.508,47.417 35.508,70.094 44.012,70.094 44.012,100.567 35.508,100.567 35.508,131.039 
		12.83,131.039 12.83,122.535 -18.35,122.535 -18.35,131.039 -41.028,131.039 -41.028,122.535 -72.209,122.535 -72.209,131.039 
		-94.886,131.039 -94.886,100.567 -103.389,100.567 -103.389,70.094 -94.886,70.094 -94.886,47.417 -103.389,47.417 
		-103.389,16.945 -94.886,16.945 	"/>
</g>
<g transform="translate(504.3901785, 203.2088285) ">
	<polyline fill="none" stroke="#FF0000" stroke-width="0.0354" points="44.012,33.975 44.012,64.425 35.508,64.425 35.508,94.897 
		12.83,94.897 12.83,86.393 -18.35,86.393 -18.35,94.897 -41.028,94.897 -41.028,86.393 -72.209,86.393 -72.209,94.897 
		-94.886,94.897 -94.886,64.425 -103.389,64.425 -103.389,33.953 -94.886,33.953 -94.886,11.275 -103.389,11.275 -103.389,-19.197 
		-94.886,-19.197 -94.886,-49.67 -72.209,-49.67 -72.209,-41.166 -41.028,-41.166 -41.028,-49.67 -18.35,-49.67 -18.35,-41.166 
		12.83,-41.166 12.83,-49.67 35.508,-49.67 35.508,-19.197 44.012,-19.197 44.012,11.275 35.508,11.275 35.508,33.953 	"/>
</g>
<circle fill="none" stroke="#FF0000" stroke-width="0.0354" cx="105.362" cy="223.736" r="0"/>
<circle fill="none" stroke="#FF0000" stroke-width="0.0354" cx="105.362" cy="223.736" r="0"/>
<circle fill="none" stroke="#FF0000" stroke-width="0.0354" cx="29.662" cy="167.713" r="0"/>
<polygon fill="none" stroke="#FF0000" stroke-width="0.0354" points="23.992,162.043 46.67,162.043 46.67,153.539 77.85,153.539 
	77.85,162.043 100.528,162.043 100.528,153.539 123.205,153.539 123.205,162.043 145.882,162.043 145.882,153.539 177.063,153.539 
	177.063,162.043 199.74,162.043 199.74,184.72 208.244,184.72 208.244,215.902 199.74,215.902 199.74,238.579 208.244,238.579 
	208.244,269.76 199.74,269.76 199.74,292.437 177.063,292.437 177.063,300.941 145.882,300.941 145.882,292.437 123.205,292.437 
	123.205,300.941 100.528,300.941 100.528,292.437 77.85,292.437 77.85,300.941 46.67,300.941 46.67,292.437 23.992,292.437 
	23.992,269.76 15.488,269.76 15.488,238.579 23.992,238.579 23.992,215.902 15.488,215.902 15.488,184.72 23.992,184.72 "/>
<g transform="translate(263.4450985, 203.2088285) ">
	<polygon fill="none" stroke="#FF0000" stroke-width="0.0354" points="-46.697,-41.166 -24.02,-41.166 -24.02,-49.67 7.161,-49.67 
		7.161,-41.166 29.839,-41.166 29.839,-49.67 52.516,-49.67 52.516,-41.166 75.192,-41.166 75.192,-49.67 106.374,-49.67 
		106.374,-41.166 129.051,-41.166 129.051,-18.488 137.556,-18.488 137.556,12.693 129.051,12.693 129.051,35.37 137.556,35.37 
		137.556,66.551 129.051,66.551 129.051,89.228 106.374,89.228 106.374,97.732 75.192,97.732 75.192,89.228 52.516,89.228 
		52.516,97.732 29.839,97.732 29.839,89.228 7.161,89.228 7.161,97.732 -24.02,97.732 -24.02,89.228 -46.697,89.228 -46.697,66.551 
		-55.201,66.551 -55.201,35.37 -46.697,35.37 -46.697,12.693 -55.201,12.693 -55.201,-18.488 -46.697,-18.488 	"/>
</g>
<rect x="28.662" y="258.201" fill="none" stroke="#FF0000" stroke-width="0.0354" width="166.283" height="25.775"/>
<rect x="337.445" y="240.975" fill="none" stroke="#FF0000" stroke-width="0.0354" width="50.5" height="45.5"/>
<rect x="291.388" y="127.361" fill="none" stroke="#FF0000" stroke-width="0.0354" width="106.726" height="16.533"/>
</svg>
